<svg id="Слой_1" data-name="Слой 1" xmlns="http://www.w3.org/2000/svg" viewBox="0 0 50 50"><defs><style>.cls-1{fill:#1e90ff;}.cls-2{fill:#fff;stroke:#1e90ff;stroke-linecap:round;stroke-linejoin:round;stroke-width:2px;}</style></defs><title>Delete</title><path class="cls-1" d="M25,3A22,22,0,1,1,3,25,22,22,0,0,1,25,3m0-2A24,24,0,1,0,49,25,24,24,0,0,0,25,1Z"/><path class="cls-1" d="M34,17.17,32,38a1.36,1.36,0,0,1-1.44,1H19.43A1.36,1.36,0,0,1,18,38l-2-20.8H34m2.2-2H13.79l2.21,23A3.33,3.33,0,0,0,19.43,41H30.57A3.33,3.33,0,0,0,34,38.16l2.21-23Z"/><path class="cls-1" d="M36.33,13a.67.67,0,0,1,.67.67V15H13V13.67a.67.67,0,0,1,.67-.67H36.33m0-2H13.67A2.66,2.66,0,0,0,11,13.67v1.75A1.58,1.58,0,0,0,12.58,17H37.42A1.58,1.58,0,0,0,39,15.42V13.67A2.66,2.66,0,0,0,36.33,11Z"/><path class="cls-1" d="M25,12c-3,0-3-.7-3-1,0-1.08,1.37-2,3-2s3,.92,3,2C28,11.3,28,12,25,12Z"/><path class="cls-1" d="M25,10a2.24,2.24,0,0,1,1.94.82A7.26,7.26,0,0,1,25,11a7.26,7.26,0,0,1-1.94-.18A2.24,2.24,0,0,1,25,10m0-2c-2.21,0-4,1.34-4,3s1.79,2,4,2,4-.34,4-2-1.79-3-4-3Z"/><line class="cls-2" x1="25" y1="19" x2="25" y2="37"/><line class="cls-2" x1="20" y1="19" x2="21" y2="37"/><line class="cls-2" x1="30" y1="19" x2="29" y2="37"/></svg>