<svg id="Слой_1" data-name="Слой 1" xmlns="http://www.w3.org/2000/svg" viewBox="0 0 50 50"><defs><style>.cls-1{fill:#1e90ff;}.cls-2{fill:none;}.cls-2,.cls-3{stroke:#1e90ff;stroke-linecap:round;stroke-linejoin:round;stroke-width:2px;}.cls-3{fill:#fff;}</style></defs><title>Edit</title><path class="cls-1" d="M25,3A22,22,0,1,1,3,25,22,22,0,0,1,25,3m0-2A24,24,0,1,0,49,25,24,24,0,0,0,25,1Z"/><path class="cls-2" d="M31.15,12.17,14.86,28.45a4.38,4.38,0,0,0-1,1.46L11.57,36c-.72,1.88.56,3.16,2.44,2.44l6.08-2.32a4.38,4.38,0,0,0,1.46-1L37.83,18.85c1.21-1.2,1.53-2.84.72-3.65L34.8,11.45C34,10.64,32.35,11,31.15,12.17Z"/><line class="cls-3" x1="29.49" y1="13.83" x2="36.17" y2="20.51"/><line class="cls-3" x1="16.82" y1="27.91" x2="22.08" y2="33.17"/><line class="cls-3" x1="19.45" y1="30.54" x2="32.83" y2="17.17"/></svg>