<svg id="Слой_1" data-name="Слой 1" xmlns="http://www.w3.org/2000/svg" viewBox="0 0 1280 720"><defs><style>.cls-1{fill:#e5d82c;}</style></defs><title>Монтажная область 1</title><path class="cls-1" d="M1270.67,270.32c-.74-1.57-10.19-1.57-374.2-1.57-254.53,0-373.88-.25-375-.83-1.74-1-4.06-5-4.06-7.05a16.13,16.13,0,0,0-1.66-4.72,21,21,0,0,1-1.66-4.23c0-2-13.26-28.92-15.41-31.33a4.11,4.11,0,0,1-1.16-1.9c0-.91-7.05-11.69-12.27-18.73a223.36,223.36,0,0,0-42.85-44.26,268.14,268.14,0,0,0-30.66-20.64c-2.16-1.24-18.07-9-28.18-13.84-3.82-1.82-23.79-8.79-29.84-10.44A343.11,343.11,0,0,0,316,102.49c-7.54-1.16-15.91-2.49-18.65-2.9-6.88-1.08-37.3-1.58-46.83-.75-23.54,2-52,8.46-75.75,17.32-9,3.4-31.91,14.43-40,19.4-11.94,7.29-15.92,9.94-17.24,11.35a4.77,4.77,0,0,1-2.32,1.66c-3.07,0-35.72,29.59-45.75,41.44-7.63,9-18.07,23-21.55,28.84-.5.75-2.24,3.65-4.06,6.3a69.42,69.42,0,0,0-3.65,6.22,66.08,66.08,0,0,1-3.56,6.71C24.81,259,14.45,291.21,10.8,318.23c-2.07,15.41-2.4,43.18-.75,57.85,2.33,20.47,2.74,23.62,4.65,32.74,4.55,21.8,8,33.4,15,51.22A245.87,245.87,0,0,0,82.91,542.5a235.29,235.29,0,0,0,65.22,47.33c18.16,8.87,20.81,10,38.54,16,18.9,6.38,50,12.43,74.18,14.33,16.74,1.41,43.68-.58,68.79-5,16-2.82,31.42-6.8,42.77-10.94,4.31-1.58,8.95-3.23,10.28-3.73,11.77-4.15,32.57-14.92,45.58-23.62,21.14-14.18,37.88-30,57.19-54a68.07,68.07,0,0,0,4.14-5.47c.5-.75,3.15-4.73,6-8.87A299,299,0,0,0,515,475.12c5.22-11.1,6.71-13.67,8.37-15.16,1.57-1.33,11.1-1.41,175.12-1.41,148.78,0,173.56.16,174.39,1.16s1,18.23.91,69.78c0,63.07.08,68.63,1.32,70s4.4,1.57,77.17,1.57c50.64,0,76.33-.25,77.41-.83,1.49-.83,1.57-2.32,1.57-49.23,0-46.58.08-48.4,1.58-49.73s3.06-1.41,12.35-1.16c7.45.17,11.1.58,12,1.41,1.25,1,1.41,5.55,1.41,49.48,0,46.91.09,48.4,1.58,49.23,2.48,1.33,151.09,1.16,152.42-.16.74-.75,1-17.49,1-70.12,0-46,.25-69.62.83-70.7.83-1.49,2.07-1.57,27.6-1.57,15.33,0,27.18-.33,27.93-.83,1.08-.66,1.24-12,1.41-92.91C1271.5,303.72,1271.25,271.32,1270.67,270.32Zm-867.76,126c-2.82,10.45-3.81,12.93-10.44,26.11A133.07,133.07,0,0,1,362,462.19C355.5,468,344.89,476,343.82,476a12.32,12.32,0,0,0-3.24,2c-3.81,2.82-17.24,9-25.85,11.94-35.15,12-74,9.36-106.18-7.22-17.15-8.86-29.17-18.06-41.19-31.41-9.11-10.19-19.39-25.94-23.29-35.8-.83-2.07-2-4.89-2.57-6.22-2-4.47-4.47-13.09-6.71-23.2-2-8.87-2.24-11.77-2.32-26.11,0-14.67.17-17.16,2.32-27.27,2.24-10.69,4.64-18.9,7.71-26.11,2.48-5.8,10.11-20.39,11.85-22.71,1-1.24,3.48-4.64,5.64-7.62,8.95-12.43,24.36-26.44,38.29-34.9,19.81-11.93,36.63-17.4,60.92-19.72,22.37-2.16,52,3.31,69.95,12.85a31.44,31.44,0,0,0,4.31,2c.74,0,14.09,8.13,15.66,9.54a48.73,48.73,0,0,0,4.64,3.48c9.2,6.3,21.8,19.39,29.59,30.91C406.89,315,413.77,355.52,402.91,396.3Z"/></svg>